<svg version="1.2" xmlns="http://www.w3.org/2000/svg" viewBox="0 0 947 837" width="947" height="837">
	<style>
		.s0 { fill: #fefefe } 
	</style>
	<g id="Folder 2 copy">
		<filter id="f0">
			<feFlood flood-color="#000000" flood-opacity="1" />
			<feBlend mode="normal" in2="SourceGraphic"/>
			<feComposite in2="SourceAlpha" operator="in" />
		</filter>
		<g id="Folder 1" filter="url(#f0)">
			<path class="s0" d="m278.33 489.68q1.1-0.01 2.23-0.01c60.76 0.09 120.34 18.8 164.72 61.13 30.75 31.87 40.58 75.31 40.03 118.33-0.83 45.16-19.37 84.66-51.58 116.05-22.26 20.19-47.92 31.17-77.11 37.15q-1.43 0.29-2.9 0.6c-15.46 3-31.22 3.95-46.92 4.71q-1.23 0.06-2.49 0.12c-13.36 0.67-26.71 1.07-40.07 1.36-8.95 0.2-17.84 0.55-26.74 1.51-26.2 2.81-26.2 2.81-32.7-2.29-3.58-4.16-6.51-9.2-6.51-14.75 9.56-2.41 18.87-4.44 28.7-5.41 5.21-0.94 8.39-2.38 11.51-6.7 5.32-12.24 3.85-27.38 3.15-40.34q-0.41-8.03-0.77-16.06-0.08-1.71-0.16-3.47c-0.41-8.92-0.71-17.83-0.96-26.75q-0.02-1-0.05-2.04-0.12-4.11-0.23-8.21c-0.6-21.61-1.3-43.2-2.49-64.78q-0.18-3.32-0.35-6.64c-0.25-19.91-0.25-19.91-8.38-37.38-3.97-2.87-7.32-3.56-12.16-4.12q-1-0.13-2.04-0.25-3.2-0.39-6.41-0.74-3.21-0.38-6.43-0.77-2.91-0.34-5.82-0.68c-3.11-0.43-3.11-0.43-6.1-1.43q-0.12-3.09-0.19-6.18c-0.05-1.72-0.05-1.72-0.11-3.47 0.33-3.74 0.88-5.48 3.29-8.33 5.19-2.3 10.09-2.31 15.66-2.34q1.41-0.02 2.85-0.04 3.04-0.05 6.07-0.08c15.72-0.18 31.41-0.56 47.1-1.6 8.76-0.57 17.5-1.13 26.28-1.18 1.06-0.02 1.06-0.02 2.13-0.03 7.82 0.05 14.64 1.35 20.79 6.27 1.59 3.19 1.36 6.52 1 9.99-2.17 5.03-5.83 7.86-10.62 10.36-3.58 2.45-4.82 5.6-5.93 9.71-0.63 4.18-0.6 8.32-0.6 12.54q-0.01 1.49-0.02 3.02-0.01 5.07 0 10.14 0 1.76 0 3.59c0.05 52.74 0.4 105.81 4.85 158.38 0.53 6.34 0.93 12.68 1.33 19.02 34.11-2.87 63.61-8.06 88.91-32.96 1.07-1.04 1.07-1.04 2.18-2.11 26.35-27.36 31.63-71.98 30.96-108.24-1.2-41.46-10.15-78.57-39.14-109.42q-0.8-0.92-1.63-1.86c-24-26.24-68.21-39.4-102.62-41.22-41.51-1.71-88.64 8.62-121.51 35.09q-1.14 0.86-2.31 1.75c-12.48 10.06-20.72 25.31-23.29 41.01-1.79 17.04 0.46 37.59 9.98 52.14 2.63 3.22 4.72 4.48 8.62 5.99 6.06 0.6 9.71-0.93 14.86-3.75q2.13-1.1 4.25-2.2 1.94-1.02 3.87-2.04c6.3-3.34 11.77-5.44 18.98-4 5.01 2.04 9.56 4.68 12.55 9.31 2.63 6.74 3.3 12.54 0.63 19.39-3.87 7.36-8.97 11.88-16.78 14.6-14.72 4.04-29.45 1.85-42.98-4.96-18.29-10.77-30.34-26.98-36.21-47.27-6.09-23.72-1.93-49.07 10.08-70.17 21.92-34.57 59.19-52.02 97.99-61.04 19.1-4.2 38.22-5.94 57.76-5.95z"/>
			<path class="s0" d="m601.8 489.76q2.53-0.01 5.07-0.01 6.8-0.02 13.59-0.01 4.24 0 8.47 0c25.66 0 51.3 0.29 76.95 1.12q1.02 0.03 2.07 0.07c12.04 0.39 24.09 0.8 36.12 1.54 6.67 0.4 13.33 0.57 20.02 0.66 1.45 0.02 1.45 0.02 2.94 0.05q5.98 0.09 11.96 0.14 4.44 0.05 8.89 0.13 1.33 0 2.71 0c5.07 0.1 8.71 0.59 13.07 3.47 2.41 3.63 2.2 5.38 2.12 9.68q-0.03 1.75-0.06 3.57c-0.03 1.35-0.03 1.35-0.07 2.73q-1.18 0.11-2.41 0.23-5.47 0.53-10.95 1.08-1.86 0.18-3.79 0.36c-13.75 1.22-13.75 1.22-25.8 7.32-6.44 9.15-6.29 21.04-6.37 31.77q-0.03 1.79-0.06 3.64-0.07 5.71-0.13 11.42-0.06 5.66-0.14 11.31-0.05 3.5-0.08 7.01-0.1 8.95-0.59 17.9c-0.65 12.21-0.73 24.38-0.67 36.61q0.03 5.5 0.04 11.01 0.03 15.63 0.1 31.25 0.04 9.63 0.06 19.25 0.01 3.63 0.03 7.26c0.1 17.03-0.03 34-4.43 50.57q-0.32 1.24-0.65 2.52c-4.46 16.49-12.28 29.86-24.07 42.19-0.92 1.03-0.92 1.03-1.86 2.08-18.24 19.72-48.63 27.73-74.62 29.01-27.15 0.82-54.29-3.45-75.36-22.1q-1.34-1.18-2.72-2.4c-13.48-12.63-21.39-29.51-22.46-48.06-0.23-17.78 4.52-33.39 16.93-46.38 12.52-12.48 28.91-19.11 46.52-19.35 15.6 0.08 28.07 5.14 39.42 15.95 6.47 6.81 10.21 13.87 11.21 23.32-0.3 11.27-3.65 21.08-11.32 29.43-6.86 6.31-14.47 9.12-23.76 8.89-5.97-0.76-10.86-3-14.79-7.62-5-7.38-5.8-12.76-5.07-21.71 1.59-5.96 6.23-9.06 11.06-12.51 2.42-1.86 2.84-2.85 3.24-5.86 0.12-1.35 0.12-1.35 0.25-2.74q0.12-1.35 0.25-2.75 0.09-1.04 0.18-2.12c-20.56-0.84-20.56-0.84-37.96 9-8.09 7.84-12.08 16.72-12.98 27.97-0.14 14.78 2.86 28.73 12.88 40.11 13.05 12.61 29.73 16.37 47.33 16.32 13.64-0.37 24.67-4.3 35.69-12.48q1.6-1.14 3.24-2.31c22.17-21.66 23.21-54.9 24.85-83.85q0.06-0.99 0.12-2.02c1.84-32.56 2-65.21 2.32-97.81q0.03-3.05 0.06-6.09 0.16-16.37 0.3-32.75 0.08-8.42 0.17-16.85 0.09-8.96 0.14-17.92 0.01-3.03 0.05-6.06 0.04-4.04 0.04-8.08 0.02-1.13 0.04-2.28c-0.02-4.38-0.58-7.24-3.36-10.68-3.21-1.07-5.69-1.19-9.07-1.3q-1.87-0.06-3.81-0.12-2.07-0.06-4.15-0.11-2.16-0.07-4.32-0.13-4.57-0.14-9.14-0.27-5.7-0.16-11.4-0.34c-15.52-0.47-31.04-0.82-46.57-0.83q-1.94-0.01-3.93-0.01c-31.56 0.06-53.67 6.52-78.43 26.09-1.4 1.06-1.4 1.06-2.83 2.15-8.42 7.14-10.13 20.51-11.16 30.81-0.89 14.72 0.87 27.75 10.89 39.11 11.47 11.12 26.38 15.65 42.06 15.83 8.88-0.56 17.1-2.76 24.97-6.99 1.46-2.92 0.77-5.09 0.31-8.3q-0.22-1.69-0.45-3.43c-1.22-4.61-3.16-7.23-7.25-9.69-1.26-0.55-1.26-0.55-2.54-1.12-7.3-3.47-11.25-7.31-15.04-14.42-1.86-5.58-1.94-11.66 0.43-17.11 3.59-6.22 9.25-11.32 15.99-13.86 7.53-2 14.36-1.86 21.38 1.68 11.27 6.89 16.78 16.78 20.14 29.29 2.93 14.17 0.38 28.09-7.48 40.25-9.73 13.35-22.66 21.82-38.83 25.18-22.1 3.05-43.63-2.21-61.63-15.38-13.24-10.29-22.49-24.62-25.49-41.23-1.42-12.54-0.95-24.61 2.56-36.79q0.38-1.35 0.77-2.74c7.43-22.97 22.68-37.15 43.58-48.08 20.95-10.47 43.31-13.27 66.47-13.28z"/>
			<path class="s0" d="m777.68 16.42c11.55 10.35 16 30.15 16.98 44.95 1.29 26.45-3.06 50.7-15.98 73.93q-0.79 1.47-1.61 2.98c-13.87 23.78-37.98 32.1-62.82 40.09-28.14 8.7-28.14 8.7-49.45 27.85-2.64 5.43-3.45 11.02-4 16.98 8.92-3.04 17.04-6.96 25.26-11.51 8.36-4.55 15.31-5.78 24.75-5.66q1.53 0.01 3.1 0.02c6.54 0.07 13 0.39 19.52 0.94 10.45 1.16 10.45 1.16 20.28-0.77-23.18-6.44-47.97-8.51-70.15 1.36-1.78 0.64-1.78 0.64-4.77 0.64 0.23-4.9 1.69-7.76 4.95-11.25 9.88-8.4 24.28-11.48 37.01-11.08 8.09 0.96 16.02 3.23 23.84 5.43 11.27 3.07 22.46 4.12 34.09 4.91-2.77 14.21-10.05 25.5-22.15 33.66-12.6 8.13-24.75 12.89-39.95 9.87-4.31-1.1-8.52-2.48-12.73-3.88-12.77-4.19-20.98-6.05-33.44 0.15-5.41 2.4-10.72 2.32-16.53 2.33q-1.29 0-2.62 0.01-2.76 0-5.51 0-4.14 0.01-8.27 0.04c-25.92 0.09-25.92 0.09-35.61-4.22 0.94-3.28 1.55-4.7 4.45-6.62q1.44-0.67 2.91-1.37c6.22-3.21 9.04-5.82 11.19-12.52 1.54-5.31 1.88-10.19 1.8-15.7q-0.01-1.44-0.02-2.93c-0.16-8.5-0.85-16.95-1.67-25.42q-0.17-1.83-0.35-3.72c-0.76-14.56-0.76-14.56-7.14-26.81-8.66-4.92-18.09-5.03-27.74-3.08-5.74 1.65-10.81 3.69-15.72 7.12-1.68 1.15-1.68 1.15-3.79 2.06-3.01 1.74-3.22 4.05-4.16 7.26-4.93 19.26-9.69 46.43-1.09 65.34 2.38 3.94 5.43 5.61 9.48 7.59 6.52 3.26 6.52 3.26 8.3 6.04 0.28 0.87 0.28 0.87 0.57 1.76-7.14 2.79-13.35 4.14-21.04 4.56q-1.13 0.06-2.3 0.13c-6.21 0.32-12.39 0.48-18.62 0.31-1.05-0.03-1.05-0.03-2.13-0.06-10.61-0.3-20.52-1.26-30.83-3.94 1.95-4.66 3.43-6.78 8.05-8.86q1.31-0.61 2.66-1.24c2.27-0.89 2.27-0.89 4.27-0.89 3.22-11.37 3.15-22.85 3.13-34.59q0-2.27 0.01-4.55 0-4.76-0.01-9.53-0.01-4.77 0-9.54c0.02-16.28-0.02-32.57-0.4-48.84q-0.05-2.12-0.08-4.24c-0.13-7.56-0.69-14.92-2-22.36q-0.17-1.01-0.35-2.05c-0.7-3.59-1.31-5.93-4.29-8.15q-1.23-0.83-2.5-1.68c-3.38-3.13-4.11-5.94-5.49-10.3 15.02-8.67 32.56-14.08 49.94-13.99 0.02 0.92 0.02 0.92 0.03 1.86 0.36 40.08 0.36 40.08 2.97 80.06q1.2-0.5 2.44-1.02c22.36-9.32 43.17-15.53 66.96-6.18 3.37 1.6 6.34 3.58 9.37 5.74 3.22 2.19 6.62 3.79 10.14 5.45 0.15-1.17 0.15-1.17 0.31-2.37 0.69-3.64 1.64-7.06 2.75-10.59q1.03-3.36 1.92-6.76c6.37-23.41 25.82-40.96 46.4-52.77 7.45-4.13 15.26-7.42 23.09-10.76 17.17-7.34 30.23-16.21 43.33-29.55 3.52-3.56 7.22-6.87 11.06-10.07zm-21.23 49.62q-1.6 0.86-3.25 1.75-1.72 0.93-3.49 1.89-0.87 0.47-1.77 0.96c-35.96 19.46-77.17 43.99-89.64 85.77-1.68 6.41-3.19 14.92-0.48 21.18q0.49 0.82 0.99 1.66c3.18-3.69 5.28-7.31 7.3-11.74q0.45-0.96 0.91-1.96c1.91-4.19 3.64-8.44 5.3-12.74 8.21-20.92 23.99-37.06 42.63-49.3 3.3-2.17 6.54-4.43 9.79-6.67q2.02-1.39 4.04-2.78 1.98-1.36 3.95-2.72c0.92-0.63 0.92-0.63 1.86-1.28 6.6-4.56 13.04-9.29 19.24-14.39 0.8-0.64 0.8-0.64 1.61-1.29 3.89-3.27 5.97-6.57 8.26-11.01-2.9 0-4.69 1.31-7.25 2.67z"/>
			<path class="s0" d="m789.86 268.31c4.51 4.6 2.84 14.21 2.78 20.41q-0.11 6.28-0.32 12.55-0.22 6.82-0.39 13.63c-0.04 1.34-0.04 1.34-0.07 2.7-0.5 18.86-0.15 37.61 0.81 56.45 15.44 0.69 31.93-2.15 44.76-11.43 2.8-3.28 3.26-5.26 3.19-9.55-1.34-2.78-1.34-2.78-3-5q0-0.98 0-1.99c-0.83-0.31-0.83-0.31-1.69-0.63-3.69-2.2-6.37-5.5-8.3-9.36-0.53-4.87-0.46-8.89 1.44-13.43 4.38-4.39 8.54-5.54 14.7-5.57 7.36 0.72 11.8 2.74 17.12 7.84 5.1 6.48 4.33 14.33 3.7 22.14-2.19 9.92-7.35 18.8-15.75 24.63-3.94 2.38-8.04 4.41-12.22 6.34 2.44 5.54 6.7 7.57 11.74 10.43 14.64 8.41 23.22 18.17 28.13 34.55 3.39 12.97 2.26 25.17-0.29 38.19q-0.33 1.77-0.67 3.59-1.46 7.78-3.06 15.53c-2.94 14.63-2.68 28.54 5.28 41.46 4.69 6.31 13.07 10.8 20.81 12.09 11.06 0.7 20.88 0.93 29.9-6.37 4.04-5.14 5.68-9 5.06-15.61q-0.98-1.47-2-2.99c-2.76-0.4-5.4-0.64-8.18-0.82-10.58-0.96-10.58-0.96-14.69-5.47-1.88-2.92-2.72-5.25-3.1-8.7 1.71-4.61 4.83-6.57 8.99-8.99 6.12-2.04 12.79-1.82 18.79 0.56 5.96 3.05 9.63 7.41 12.05 13.61 2.94 10.3 1.4 20.61-3.56 29.97-7.08 8.61-15.28 13.8-26.28 15.8-19 1.78-37.13-1.7-52.8-13.05-15.3-12.93-20.01-30.81-22.12-49.89-0.67-8.43-0.84-16.9-1.09-25.35-0.25-30.52-0.25-30.52-13.75-56.81-9.72-7.93-21.03-9.78-33.11-10.74-0.08 1.04-0.08 1.04-0.15 2.1-0.44 5.7-1.07 11.29-1.98 16.94-1.63 12.02-2.35 27.16 4.12 37.9 3.02 2.68 6.02 4.02 9.68 5.56 4.81 2.08 4.81 2.08 6.31 4.43-0.22 1.99-0.22 1.99-1 4-5.89 2.87-11.56 3.67-18.04 4.18-1.45 0.12-1.45 0.12-2.92 0.24-10.67 0.81-21.29 0.78-31.99 0.57q-2.02-0.03-4.05-0.06c-33.68-0.49-33.68-0.49-46.89-3.93q-1.55-0.4-3.14-0.81c-6.73-1.99-12.68-5.05-18.68-8.63-2.7-1.56-4.64-2.56-7.8-2.49-2.73 1.09-4.76 2.46-7.09 4.25-13.45 9.64-29.76 12.33-45.99 9.9-12.48-2.09-23.63-6.91-31.25-17.4-10.49-14.98-11.24-31.38-12.1-49.2-0.47-13.57-0.47-13.57-6.25-25.34q-1.26-1.08-2.56-2.19c-1.73-2.3-2.79-4.33-4-6.99 1.66-4.57 4.91-7.51 8.99-9.99 5.23-2.05 10.56-3.55 15.99-5q1.06-0.28 2.15-0.58c7.55-2.05 14.98-3.85 22.82-4.41 2.38 7.18 2.22 14.24 2.12 21.73q-0.04 3.49-0.06 6.99-0.07 9.92-0.18 19.85-0.06 6.1-0.09 12.19-0.01 2.3-0.05 4.6c-0.17 11.93-0.29 26.56 7.25 36.53 7.66 6.1 15.68 5.51 24.98 5 5.24-1.05 8.94-3.55 12.98-6.99q0.99 0 2 0c1.54-3.72 2.85-7.47 4.06-11.31 0.51-1.6 0.51-1.6 1.03-3.23 1.82-6.95 2.03-13.7 1.93-20.83q-0.02-2.72-0.04-5.44-0.03-4.22-0.08-8.43c-0.36-32.01-0.36-32.01 4.09-38.67 2.32-1.37 4.48-2.49 6.93-3.56q1-0.45 2.03-0.92c7.89-3.46 15.37-6.62 24-4.51 0.92 8.87 1.11 17.63 1.03 26.55q-0.01 2.08-0.02 4.15-0.04 8.7-0.1 17.4c-0.13 17.37 0.14 34.51 2.09 51.79q0.92 0.31 1.86 0.62c5.06 1.69 5.06 1.69 10.13 3.38 5.76 0.47 11.11 0.8 16.48-1.5 11.68-11.68 11.59-29.11 11.8-44.69q0.04-1.92 0.07-3.91 0.08-5.21 0.15-10.43 0.05-3.24 0.09-6.48 0.18-12.95 0.33-25.9 0.07-5.55 0.14-11.1 0.09-7.68 0.14-15.36 0.02-2.72 0.05-5.44c0.82-16.11 0.82-16.11-5.25-30.24q-2.04-1.8-4.15-3.54c-3.17-3.81-3.87-8.35-3.87-13.23q0.81-0.19 1.64-0.38 3.87-0.9 7.73-1.81 1.41-0.33 2.86-0.67c6.96-1.66 13.86-3.5 20.7-5.61 5.28-1.55 11.08-3.07 16.21-0.37z"/>
			<path class="s0" d="m326.15 275.15c1.49 7.97 2.38 15.78 2.75 23.88q0.17 3.34 0.35 6.69 0.26 5.17 0.5 10.35 0.25 5.06 0.52 10.12 0.07 1.51 0.13 3.08c0.4 7.21 1.78 13.86 3.75 20.8 4.08-1.26 7.63-2.81 11.36-4.87 15.67-7.85 34.29-10.24 51.2-4.99 15.93 5.42 27.58 15.84 35.15 30.84 2.65 5.54 4.72 11.02 6.18 16.98q0.25 0.91 0.52 1.84c3.35 15.05 0.21 31.71-7.32 44.87-10.82 15.97-26.37 23.98-44.98 27.8-19.27 2.54-34.54-1.78-51.22-11.36-3.31-1.39-4.55-1.42-7.89-0.21-2.21 1.24-2.21 1.24-4.31 2.81-13.55 9.3-26.75 8.43-42.76 8.52q-3.18 0.03-6.36 0.09c-25.53 0.45-25.53 0.45-36.91-7.8-2.46-1.88-2.46-1.88-5.43-1.63-6.07 1.94-11.09 4.96-16.36 8.49-12.75 8.19-26.51 9.76-41.29 7.28-13.33-3.06-27.52-10.6-35.03-22.34-7.25-13.24-7.77-27.55-8.61-42.3-0.47-12.49-0.47-12.49-4.73-24.05q-1.13-0.43-2.31-0.87c-3.75-1.57-5.36-3.84-7.68-7.12-0.81-2.87-0.81-2.87-0.99-5q1.67-1.35 3.37-2.68 0.93-0.74 1.89-1.51c8.48-5.6 17.19-8.27 27.01-10.6q1.87-0.47 3.78-0.95c10-2.43 10-2.43 14.89-2.24q0.05 0.84 0.1 1.71c1.78 33.27 1.78 33.27 4.16 66.5q0.25 3.04 0.47 6.07c0.82 9.45 2.45 19.27 7.26 27.62 7.02 4.3 16.72 3.96 24.52 2.52 9.09-2.63 14.74-7.94 19.25-16.13 7.06-14.2 3.89-30.92 2.39-46.1-2.57-26.13-2.57-26.13 3.79-34.2 8.26-7.67 20.86-11.61 31.96-11.98 1.63 1.62 1.2 3.47 1.27 5.72q0.05 1.52 0.1 3.08 0.05 1.66 0.1 3.37 0.11 3.57 0.23 7.14 0.06 1.87 0.12 3.79c0.79 25.62 0.79 25.62 2.01 51.23q0.16 2.95 0.3 5.9c0.5 11.22 0.5 11.22 5.86 20.66 6.34 3.17 13.79 2.6 20.61 1.31 2.49-1.12 2.49-1.12 3.62-3.37q0.37-1.44 0.75-2.93c0.27-0.93 0.27-0.93 0.55-1.87 3.09-11.55 1.31-24.21 0.71-36.03q-1.11-21.35-1.77-42.73-0.06-2.02-0.13-4.05-0.3-9.96-0.58-19.92-0.11-3.7-0.22-7.4-0.04-1.66-0.08-3.36c-0.23-15.65-0.23-15.65-6.47-29.49-2-1.67-4.03-3.19-6.19-4.64-3.11-2.34-3.79-4.25-4.43-8.04q-0.18-1.63-0.37-3.31c16.68-5.86 33.49-5.33 50.94-4.99zm13.68 87.22c-7.34 9.53-7.26 19.3-7.09 30.84q0.04 4.01 0.04 8.02c0.08 22.96 0.08 22.96 10.61 42.74 7.15 6.31 15.3 8.25 24.72 7.99 7.67-0.82 13.51-3.03 19.02-8.51 7.39-9.31 9.69-21.05 11.95-32.44 0.29-1.45 0.29-1.45 0.58-2.94 2.28-16.8-0.2-32.1-10.06-46.13-5.07-6.41-12.36-11.32-20.49-12.87-12.29-0.98-21.12 4.65-29.28 13.3z"/>
			<path class="s0" d="m472.46 13.2c11.02 9.58 20.27 21.32 22.52 36.19 0.99 14.59-2.87 26.73-12.18 38.14-13.55 14.54-33.25 21.01-52.75 21.79q-1.25 0.08-2.53 0.16c-24.79 0.83-48.62-7.59-71.49-16.07q-6.15-2.26-12.33-4.44-1.01-0.36-2.05-0.73-7.67-2.69-15.5-4.89-0.51 3.93-0.99 7.87c-0.15 1.06-0.15 1.06-0.29 2.14-0.64 5.33-0.8 10.62-0.79 15.98q0 1.17 0 2.37c0.04 9.67 0.46 19.32 0.88 28.98q0.13 3.01 0.25 6.03 0.27 6.27 0.54 12.54 0.35 7.95 0.67 15.91 0.26 6.21 0.53 12.42 0.13 2.93 0.25 5.86c0.41 9.93 0.94 19.83 1.83 29.73q0.1 1.23 0.2 2.49c0.46 4.75 1.33 8.39 3.92 12.52 4.41 2.97 8.79 3.56 13.98 3.99 5.24 0.44 9.36 1.34 13.99 4 0.46 3.97 0.37 5.52-2.13 8.74-5.8 4.55-11.45 4.51-18.51 4.41q-1.4-0.01-2.84-0.02-4.49-0.03-8.99-0.08c-14.41-0.14-28.73 0.05-43.12 0.82-16.25 0.8-16.25 0.8-22.31-2.88-2.31-3.47-2.51-4.92-2-8.99 3.93-4.23 10.11-4.42 15.52-5.37q1.17-0.23 2.37-0.47c1.07-0.19 1.07-0.19 2.16-0.38 2.63-1.06 3.49-2.35 4.93-4.77 3.7-11.19 2.38-24.49 2.37-36.09q0-1.75 0-3.55c-0.01-27.45-1.77-54.76-3.67-82.13q-0.95-14.02-1.28-28.07c-0.22-7.51-0.78-14.75-5.42-20.98-3.38-3.03-7.26-4.41-11.48-5.87q-1.11-0.39-2.25-0.78c-26.16-8.84-55.53-13.93-83.16-12.33-1.69 0.08-1.69 0.08-3.42 0.17-8.98 0.78-17.36 2.99-25.99 5.57q-1.64 0.48-3.34 0.98c-9.76 3.05-17.25 7.71-24.38 15q-0.76 0.78-1.55 1.59c-11.6 12.17-16 26.98-15.7 43.53 0.69 17.08 8.7 31.45 20.15 43.92 12.54 10.96 32.94 11.87 48.67 11.29 10.98-0.77 22.45-4.04 30.36-12.02 5.88-7.19 7.77-14.86 7.51-24.06-0.71-6.25-2.5-12.55-6.97-17.17-3.62-2.86-5.73-3.33-10.36-2.87-6.17 4.36-8.55 13.15-10.99 19.98-8.65 0.43-15.3-0.41-22.91-4.62-3.03-3.49-3.89-6.78-4.06-11.37 1.26-7.93 5.61-13.19 11.74-18.16 8.43-5.98 17.03-6.8 27.22-5.81 10.42 2.16 18.5 8.33 24.85 16.73 7.02 10.91 9.1 22.77 6.42 35.52-3.79 12.51-11.41 22.06-22.72 28.68-20.52 10.83-41.7 12.69-63.93 5.85-18.41-6.28-35.47-19.33-44.52-36.83-7.36-17.1-8.62-34.3-2-51.95 8.87-21.67 24.04-38.94 45.58-48.57 59.71-23.72 128.3 3.96 184.47 25.07q1.09 0.41 2.22 0.83c1.08 0.41 1.08 0.41 2.18 0.83 60.23 25.63 60.23 25.63 122.69 23.39 13.04-5.98 21.99-14.26 27.4-27.83 3.08-10.84 1.42-20.93-3.93-30.66-6.98-11.75-18.38-17.79-31.28-21.29-13.51-2.54-27.7-1.07-39.32 6.51-7.71 5.95-12.32 12.38-13.62 22.06-0.32 5.66 1 10.08 4.3 14.7 3.07 2.81 4.53 3 8.7 2.99 5.39-0.76 8.14-4.09 11.65-7.99q1.82-1.94 3.65-3.87 0.78-0.86 1.59-1.74c2.4-2.39 3.63-2.4 7.13-2.69 5.27 0.07 8.27 2.48 12.05 5.99 1.86 3.64 2.29 7.24 2.18 11.3-1.7 4.41-4.95 7.59-8.99 9.99-12.26 5.06-25.07 3.93-37.17-0.87-8.11-3.72-14.52-9.43-17.85-17.84-2.34-8.31-2.1-18.05 1.63-25.9 8.61-13.9 22.53-20.77 38.03-24.63 19.03-3.23 38.61-0.47 53.78 12.08z"/>
			<path class="s0" d="m486.05 138.17c7.51 7.23 14.27 17.47 15.02 28.05-0.15 3.1-1.06 4.73-3.1 7.04-7.43 5.58-15.5 5.25-24.41 5.14q-3.17-0.04-6.33-0.05-7.87-0.04-15.73-0.12-6.65-0.06-13.3-0.09-3.09-0.02-6.18-0.06c-7.55-0.04-14.58 0.47-21.95 2.17-0.47 14.53-0.43 27.61 9.99 38.96 7.86 6.88 17.98 10.85 28.46 10.36 4.77-0.71 7.81-2.24 10.82-6.04 3.45-5.62 5.43-11.95 7.44-18.19 3.55-10.75 3.55-10.75 8.09-13.05 7.46-0.67 14.09 1.62 21.11 3.94 0.78 9.12-1.6 19.12-7.31 26.47-15.74 14.65-33.07 17.41-54.01 16.86-18.7-0.85-38.17-7.04-51.23-21.14-11.01-13.67-13.43-28.21-12.32-45.16 2.1-15.58 11.53-28.87 23.29-38.78 25.31-18.61 67.43-15.34 91.65 3.69zm-71.99 8.11c-4.24 5.09-5.49 10.49-5.99 16.99q0.45 2.01 1 3.99c8.93 1.06 17.82 1.22 26.8 1.24q3.64 0.02 7.29 0.07 2.35 0.01 4.7 0.02c1.07 0.02 1.07 0.02 2.16 0.04 4.86-0.03 10.36-0.74 13.99-4.36 0.91-8.74-3.44-16-8.28-23.03-4.28-4.88-10.52-6.69-16.82-7.19-10.23 0.66-17.97 4.63-24.85 12.23z"/>
			<path class="s0" d="m541.79 340.76c7.98 4.93 14.01 11.42 16.5 20.61 1.55 8.86 0.28 16.04-4.69 23.56-3.01 3.76-6.08 5.57-10.67 7.1-4.38 0.38-8.52 0.54-12.68-1-8.68-7.51-8.68-7.51-10.17-13.49 1.27-5.07 4.27-7.82 7.86-11.49 4.64-5.22 7.04-8.99 8-15.98-12.22-0.37-22.68 0.46-32.14 8.93-12.62 13.24-14.36 31.18-14.15 48.66q0.03 3.17 0.01 6.34c0.02 8.17 0.77 15.95 2.32 23.98q0.19 1.75 0.38 3.56c2.16 3.24 3.75 3.19 7.49 4.06q1.56 0.26 3.17 0.54c3.41 0.96 4.75 2.09 6.94 4.83q0.49 1.47 1 2.99c-7.63 6.46-17.66 6.15-27.15 6.16q-1.46 0.01-2.95 0.01-3.08 0.01-6.16 0.01-4.64 0.01-9.28 0.04c-11.29 0.03-22.21-0.42-33.38-2.22-0.25-6.62-0.25-6.62 2-9.99 2.68-0.96 2.68-0.96 5.87-1.81 5.15-1.51 5.15-1.51 8.8-5.18 1.99-4.55 2.44-8.13 2.45-13.09q0-1.8 0-3.65 0-1.9-0.01-3.87-0.01-1.94-0.01-3.95c0.98-23.59 0.98-23.59-6.11-45.37-1.75-1.39-3.56-2.62-5.41-3.86-2.14-1.54-2.92-2.56-3.58-5.13-0.08-2.67-0.02-5.33 0-7.99 0.8-0.23 0.8-0.23 1.62-0.46q3.84-1.08 7.68-2.17 1.41-0.39 2.86-0.8 8.34-2.38 16.58-5.08c7.13-2.34 13.64-4.23 21.21-4.48 2.47 5.93 2.47 5.93 4.99 11.99 6.09-3.57 11.9-7.26 17.56-11.47 9.06-5.67 23.69-5.47 33.25-0.84z"/>
			<path class="s0" d="m36.46 312.11q2.65-0.12 5.3-0.19 1.47-0.05 2.99-0.1c2.69 0.29 2.69 0.29 4.32 1.41 1.99 2.72 1.87 4.95 2.03 8.3q0.11 1.89 0.22 3.85 0.09 2.01 0.18 4.03 0.19 3.92 0.41 7.85c0.08 1.75 0.08 1.75 0.17 3.53 0.37 3.39 0.99 6.16 2.36 9.28 7.01 2.34 16 1.29 23.29 0.5 5.04-0.52 10.04-0.65 15.1-0.69 1.18-0.02 1.18-0.02 2.37-0.04 3.87 0 6.91 0.02 10.18 2.23-0.49 5.52-0.49 5.52-2.69 7.58-11.36 6.95-33.01 6.63-45.62 3.89q-0.8-0.24-1.63-0.48c-3.41 49.13-3.41 49.13 13.26 92.37 3.26 2.9 5.76 3.42 10.02 3.9 5.2-0.53 9.51-1.91 13.05-5.92 2.09-3.19 3.69-6.58 5.38-10q0.46-0.93 0.93-1.9 0.92-1.88 1.81-3.78c1.56-3.26 2.42-4.69 5.49-6.74 2.5-0.38 2.5-0.38 5 0 2.42 2.16 3 4.01 3.93 7.11 0.15 8.96-4.41 15.25-10.44 21.53-10.86 10.15-22.63 14.88-37.42 14.59-11.94-0.58-21.01-5.96-29.74-13.7q-1.11-1.26-2.25-2.56-0.7-0.79-1.42-1.59c-13.9-16.87-13.85-39.59-15.47-60.32-0.79-10.03-1.85-20.01-3.09-30q-0.95 0.08-1.94 0.16c-4.59 0.32-6.41 0.37-10.11-2.65q-0.95-1.23-1.94-2.5c3.24-7.56 9.73-10.12 16.7-13.54 4.52-2.3 7.86-4.59 11.27-8.44q0.8-0.86 1.63-1.75c4.64-7.59 5.32-16.55 6.37-25.22z"/>
		</g>
	</g>
</svg>