<svg version="1.2" xmlns="http://www.w3.org/2000/svg" viewBox="0 0 947 837" width="947" height="837"><style>.a{fill:#fefefe}</style><path class="a" d="m278.1 489.8q1.1-0.1 2.3-0.1c60.8 0.1 120.4 18.9 164.8 61.2 30.8 31.9 40.7 75.4 40.1 118.5-0.8 45.2-19.4 84.7-51.6 116.2-22.3 20.2-48 31.2-77.2 37.1q-1.4 0.3-2.9 0.7c-15.5 3-31.3 3.9-47 4.7q-1.2 0-2.5 0.1c-13.3 0.7-26.7 1.1-40.1 1.4-8.9 0.2-17.8 0.5-26.8 1.5-26.2 2.8-26.2 2.8-32.7-2.3-3.6-4.2-6.5-9.2-6.5-14.8 9.6-2.4 18.9-4.4 28.7-5.4 5.3-1 8.4-2.4 11.5-6.7 5.4-12.3 3.9-27.4 3.2-40.4q-0.4-8-0.8-16.1 0-1.7-0.1-3.5c-0.4-8.9-0.7-17.8-1-26.7q0-1 0-2.1-0.2-4.1-0.3-8.2c-0.6-21.6-1.3-43.2-2.5-64.8q-0.1-3.4-0.3-6.7c-0.3-19.9-0.3-19.9-8.4-37.4-4-2.9-7.3-3.6-12.2-4.1q-1-0.2-2-0.3-3.2-0.4-6.4-0.7-3.2-0.4-6.5-0.8-2.9-0.3-5.8-0.7c-3.1-0.4-3.1-0.4-6.1-1.4q-0.1-3.1-0.2-6.2c0-1.7 0-1.7-0.1-3.5 0.3-3.7 0.9-5.4 3.3-8.3 5.2-2.3 10.1-2.3 15.7-2.3q1.4-0.1 2.8-0.1 3.1 0 6.1-0.1c15.7-0.1 31.4-0.5 47.1-1.6 8.8-0.5 17.6-1.1 26.4-1.2 1 0 1 0 2.1 0 7.8 0.1 14.6 1.4 20.8 6.3 1.6 3.2 1.4 6.5 1 10-2.2 5-5.8 7.9-10.6 10.4-3.6 2.4-4.9 5.6-6 9.7-0.6 4.2-0.6 8.3-0.6 12.5q0 1.5 0 3.1 0 5 0 10.1 0 1.8 0 3.6c0.1 52.8 0.4 105.9 4.9 158.6 0.5 6.3 0.9 12.7 1.3 19 34.1-2.9 63.7-8.1 89-33 1.1-1 1.1-1 2.2-2.1 26.4-27.4 31.6-72.1 31-108.4-1.2-41.5-10.2-78.6-39.2-109.5q-0.8-0.9-1.6-1.9c-24.1-26.2-68.3-39.4-102.8-41.2-41.5-1.7-88.7 8.6-121.6 35.1q-1.1 0.9-2.3 1.8c-12.5 10-20.7 25.3-23.3 41-1.8 17.1 0.4 37.6 10 52.2 2.6 3.2 4.7 4.5 8.6 6 6.1 0.6 9.7-0.9 14.9-3.8q2.1-1.1 4.2-2.2 2-1 3.9-2c6.3-3.3 11.8-5.4 19-4 5 2 9.6 4.7 12.6 9.3 2.6 6.8 3.3 12.6 0.6 19.4-3.9 7.4-9 11.9-16.8 14.6-14.7 4.1-29.5 1.9-43-4.9-18.3-10.8-30.4-27-36.3-47.3-6.1-23.8-1.9-49.2 10.1-70.3 22-34.6 59.3-52.1 98.1-61.1 19.1-4.2 38.3-5.9 57.8-6z"/><path class="a" d="m601.9 489.8q2.6 0 5.1 0 6.8 0 13.6 0 4.3 0 8.5 0c25.7 0 51.3 0.3 77 1.1q1 0.1 2.1 0.1c12.1 0.4 24.1 0.8 36.2 1.5 6.6 0.5 13.3 0.6 20 0.7 1.4 0 1.4 0 2.9 0.1q6 0 12 0.1 4.5 0 8.9 0.1 1.3 0 2.7 0c5.1 0.1 8.7 0.6 13.1 3.5 2.4 3.6 2.2 5.4 2.1 9.7q0 1.7 0 3.6c-0.1 1.3-0.1 1.3-0.1 2.7q-1.2 0.1-2.4 0.2-5.5 0.6-11 1.1-1.8 0.2-3.8 0.4c-13.7 1.2-13.7 1.2-25.8 7.3-6.4 9.2-6.3 21.1-6.4 31.8q0 1.8 0 3.6-0.1 5.8-0.2 11.5 0 5.6-0.1 11.3-0.1 3.5-0.1 7-0.1 9-0.6 17.9c-0.6 12.3-0.7 24.4-0.6 36.7q0 5.5 0 11 0 15.6 0.1 31.3 0 9.6 0.1 19.3 0 3.6 0 7.2c0.1 17.1 0 34.1-4.4 50.6q-0.4 1.3-0.7 2.6c-4.5 16.5-12.3 29.9-24.1 42.2-0.9 1-0.9 1-1.9 2.1-18.2 19.7-48.6 27.7-74.7 29-27.1 0.8-54.3-3.4-75.4-22.1q-1.3-1.2-2.7-2.4c-13.5-12.6-21.4-29.5-22.5-48.1-0.2-17.8 4.5-33.4 16.9-46.4 12.6-12.5 29-19.2 46.6-19.4 15.6 0.1 28.1 5.1 39.5 16 6.5 6.8 10.2 13.8 11.2 23.3-0.3 11.3-3.7 21.1-11.3 29.5-6.9 6.3-14.5 9.1-23.8 8.9-6-0.8-10.9-3-14.8-7.7-5-7.4-5.8-12.7-5.1-21.7 1.6-6 6.2-9.1 11.1-12.5 2.4-1.9 2.8-2.9 3.2-5.9 0.1-1.3 0.1-1.3 0.3-2.7q0.1-1.4 0.2-2.8 0.1-1 0.2-2.1c-20.6-0.8-20.6-0.8-38 9-8.1 7.9-12.1 16.7-13 28-0.1 14.8 2.9 28.8 12.9 40.2 13.1 12.6 29.8 16.3 47.4 16.3 13.6-0.4 24.7-4.3 35.7-12.5q1.6-1.1 3.3-2.3c22.1-21.7 23.2-55 24.8-84q0.1-0.9 0.1-2c1.9-32.6 2-65.3 2.4-97.9q0-3 0-6.1 0.2-16.4 0.3-32.8 0.1-8.4 0.2-16.8 0.1-9 0.1-18 0-3 0.1-6 0-4.1 0-8.1 0-1.2 0.1-2.3c-0.1-4.4-0.6-7.3-3.4-10.7-3.2-1.1-5.7-1.2-9.1-1.3q-1.9-0.1-3.8-0.1-2.1-0.1-4.1-0.1-2.2-0.1-4.4-0.2-4.5-0.1-9.1-0.2-5.7-0.2-11.4-0.4c-15.6-0.4-31.1-0.8-46.7-0.8q-1.9 0-3.9 0c-31.6 0.1-53.7 6.5-78.5 26.1-1.4 1.1-1.4 1.1-2.8 2.2-8.5 7.1-10.2 20.5-11.2 30.8-0.9 14.7 0.9 27.8 10.9 39.2 11.5 11.1 26.4 15.6 42.1 15.8 8.9-0.6 17.1-2.8 25-7 1.5-2.9 0.8-5.1 0.3-8.3q-0.2-1.7-0.4-3.4c-1.3-4.7-3.2-7.3-7.3-9.7-1.3-0.6-1.3-0.6-2.5-1.2-7.3-3.4-11.3-7.3-15.1-14.4-1.9-5.6-1.9-11.7 0.4-17.1 3.6-6.3 9.3-11.4 16-13.9 7.6-2 14.4-1.9 21.4 1.7 11.3 6.9 16.8 16.8 20.2 29.3 2.9 14.2 0.4 28.1-7.5 40.3-9.7 13.4-22.7 21.8-38.9 25.2-22.1 3.1-43.6-2.2-61.6-15.4-13.3-10.3-22.6-24.6-25.6-41.3-1.4-12.5-0.9-24.6 2.6-36.8q0.4-1.4 0.8-2.7c7.4-23 22.7-37.2 43.6-48.2 21-10.5 43.4-13.3 66.5-13.3z"/><path class="a" d="m778 16c11.6 10.4 16 30.2 17 45 1.3 26.5-3.1 50.8-16 74q-0.8 1.5-1.6 3c-13.9 23.8-38 32.1-62.9 40.1-28.2 8.7-28.2 8.7-49.5 27.9-2.6 5.4-3.5 11-4 17 8.9-3 17-7 25.3-11.5 8.3-4.6 15.3-5.8 24.8-5.7q1.5 0 3.1 0c6.5 0.1 13 0.4 19.5 1 10.5 1.1 10.5 1.1 20.3-0.8-23.2-6.5-48-8.5-70.2 1.4-1.8 0.6-1.8 0.6-4.8 0.6 0.2-4.9 1.7-7.8 5-11.3 9.8-8.4 24.3-11.5 37-11.1 8.1 1 16 3.3 23.9 5.5 11.2 3.1 22.5 4.1 34.1 4.9-2.8 14.2-10.1 25.5-22.2 33.7-12.6 8.1-24.8 12.9-40 9.9-4.3-1.1-8.5-2.5-12.7-3.9-12.8-4.2-21-6.1-33.5 0.1-5.4 2.4-10.7 2.4-16.5 2.4q-1.3 0-2.7 0-2.7 0-5.5 0-4.1 0-8.3 0c-25.9 0.1-25.9 0.1-35.6-4.2 0.9-3.3 1.6-4.7 4.5-6.6q1.4-0.7 2.9-1.4c6.2-3.2 9-5.8 11.2-12.5 1.5-5.4 1.9-10.2 1.8-15.8q0-1.4 0-2.9c-0.2-8.5-0.9-17-1.7-25.4q-0.2-1.9-0.4-3.8c-0.7-14.5-0.7-14.5-7.1-26.8-8.7-4.9-18.1-5-27.8-3.1-5.7 1.7-10.8 3.7-15.7 7.2-1.7 1.1-1.7 1.1-3.8 2-3 1.8-3.2 4.1-4.2 7.3-4.9 19.3-9.7 46.5-1.1 65.4 2.4 3.9 5.5 5.6 9.5 7.6 6.5 3.2 6.5 3.2 8.3 6 0.3 0.9 0.3 0.9 0.6 1.8-7.1 2.8-13.4 4.1-21.1 4.6q-1.1 0-2.3 0.1c-6.2 0.3-12.4 0.5-18.6 0.3-1.1 0-1.1 0-2.1-0.1-10.7-0.3-20.6-1.2-30.9-3.9 2-4.7 3.4-6.8 8.1-8.9q1.3-0.6 2.6-1.2c2.3-0.9 2.3-0.9 4.3-0.9 3.2-11.4 3.2-22.9 3.1-34.6q0-2.3 0-4.6 0-4.8 0-9.5 0-4.8 0-9.6c0.1-16.3 0-32.6-0.4-48.9q0-2.1-0.1-4.2c-0.1-7.6-0.6-14.9-2-22.4q-0.1-1-0.3-2c-0.7-3.6-1.3-6-4.3-8.2q-1.2-0.8-2.5-1.7c-3.4-3.1-4.1-5.9-5.5-10.3 15-8.7 32.6-14.1 50-14 0 0.9 0 0.9 0 1.9 0.4 40.1 0.4 40.1 3 80.1q1.2-0.5 2.4-1c22.4-9.3 43.3-15.6 67.1-6.2 3.3 1.6 6.3 3.6 9.4 5.7 3.2 2.2 6.6 3.8 10.1 5.5 0.2-1.2 0.2-1.2 0.3-2.4 0.7-3.6 1.7-7 2.8-10.6q1-3.3 1.9-6.7c6.4-23.5 25.8-41 46.4-52.9 7.5-4.1 15.3-7.4 23.2-10.7 17.1-7.4 30.2-16.3 43.3-29.6 3.5-3.6 7.2-6.9 11.1-10.1zm-21.2 49.7q-1.7 0.8-3.3 1.7-1.7 1-3.5 1.9-0.9 0.5-1.8 1c-36 19.5-77.2 44-89.7 85.8-1.7 6.4-3.2 15-0.5 21.2q0.5 0.9 1 1.7c3.2-3.7 5.3-7.3 7.3-11.7q0.5-1 0.9-2c1.9-4.2 3.7-8.5 5.3-12.8 8.2-20.9 24-37.1 42.7-49.3 3.3-2.2 6.5-4.5 9.8-6.7q2-1.4 4.1-2.8 1.9-1.3 3.9-2.7c0.9-0.6 0.9-0.6 1.9-1.3 6.6-4.6 13-9.3 19.2-14.4 0.8-0.6 0.8-0.6 1.6-1.3 3.9-3.3 6-6.6 8.3-11-2.9 0-4.7 1.3-7.2 2.7z"/><path class="a" d="m790.2 268.1c4.5 4.7 2.8 14.3 2.8 20.5q-0.1 6.3-0.4 12.5-0.2 6.9-0.3 13.7c-0.1 1.3-0.1 1.3-0.1 2.7-0.5 18.9-0.2 37.6 0.8 56.5 15.5 0.7 32-2.1 44.8-11.4 2.8-3.3 3.3-5.3 3.2-9.6-1.3-2.8-1.3-2.8-3-5q0-1 0-2c-0.8-0.3-0.8-0.3-1.7-0.6-3.7-2.2-6.4-5.5-8.3-9.4-0.5-4.9-0.5-8.9 1.4-13.4 4.4-4.4 8.6-5.6 14.8-5.6 7.3 0.7 11.8 2.7 17.1 7.8 5.1 6.5 4.3 14.4 3.7 22.2-2.2 9.9-7.4 18.8-15.8 24.6-3.9 2.4-8 4.5-12.2 6.4 2.4 5.5 6.7 7.6 11.8 10.4 14.6 8.5 23.2 18.2 28.1 34.6 3.4 13 2.3 25.2-0.3 38.2q-0.3 1.8-0.6 3.7-1.5 7.7-3.1 15.5c-3 14.6-2.7 28.6 5.3 41.5 4.7 6.3 13.1 10.8 20.8 12.1 11.1 0.7 20.9 0.9 29.9-6.4 4.1-5.1 5.7-9 5.1-15.6q-1-1.5-2-3c-2.8-0.4-5.4-0.6-8.2-0.8-10.6-1-10.6-1-14.7-5.5-1.9-2.9-2.7-5.2-3.1-8.7 1.7-4.6 4.8-6.6 9-9 6.1-2 12.8-1.8 18.8 0.6 6 3 9.6 7.4 12.1 13.6 2.9 10.3 1.4 20.6-3.6 30-7.1 8.6-15.3 13.8-26.3 15.8-19 1.8-37.2-1.7-52.9-13.1-15.3-12.9-20-30.8-22.1-49.9-0.7-8.4-0.8-16.9-1.1-25.4-0.2-30.5-0.2-30.5-13.8-56.9-9.7-7.9-21-9.7-33.1-10.7-0.1 1-0.1 1-0.1 2.1-0.5 5.7-1.1 11.3-2 17-1.7 12-2.4 27.1 4.1 37.9 3 2.7 6 4 9.7 5.6 4.8 2 4.8 2 6.3 4.4-0.2 2-0.2 2-1 4-5.9 2.9-11.6 3.7-18.1 4.2-1.4 0.1-1.4 0.1-2.9 0.2-10.7 0.8-21.3 0.8-32 0.6q-2 0-4.1-0.1c-33.7-0.5-33.7-0.5-46.9-3.9q-1.5-0.4-3.1-0.8c-6.8-2-12.7-5.1-18.7-8.6-2.7-1.6-4.7-2.6-7.8-2.5-2.8 1.1-4.8 2.4-7.1 4.2-13.5 9.7-29.8 12.4-46.1 9.9-12.5-2.1-23.6-6.9-31.3-17.4-10.5-15-11.2-31.4-12.1-49.2-0.5-13.6-0.5-13.6-6.2-25.4q-1.3-1.1-2.6-2.2c-1.7-2.3-2.8-4.3-4-7 1.7-4.6 4.9-7.5 9-10 5.2-2.1 10.6-3.6 16-5q1.1-0.3 2.2-0.6c7.5-2 15-3.8 22.8-4.4 2.4 7.2 2.2 14.3 2.1 21.8q0 3.4 0 6.9-0.1 10-0.2 19.9-0.1 6.1-0.1 12.2 0 2.3-0.1 4.6c-0.1 12-0.2 26.6 7.3 36.6 7.7 6.1 15.7 5.5 25 5 5.3-1.1 9-3.5 13-7q1 0 2 0c1.5-3.7 2.9-7.5 4.1-11.3 0.5-1.6 0.5-1.6 1-3.3 1.8-6.9 2-13.7 1.9-20.8q0-2.7 0-5.5 0-4.2-0.1-8.4c-0.4-32-0.4-32 4.1-38.7 2.3-1.4 4.5-2.5 6.9-3.6q1-0.4 2.1-0.9c7.9-3.4 15.4-6.6 24-4.5 0.9 8.9 1.1 17.7 1 26.6q0 2.1 0 4.1 0 8.7-0.1 17.5c-0.1 17.3 0.2 34.5 2.1 51.8q0.9 0.3 1.9 0.6c5 1.7 5 1.7 10.1 3.4 5.8 0.5 11.1 0.8 16.5-1.5 11.7-11.7 11.6-29.1 11.8-44.7q0-2 0.1-3.9 0.1-5.3 0.1-10.5 0.1-3.2 0.1-6.5 0.2-12.9 0.4-25.9 0-5.6 0.1-11.1 0.1-7.7 0.1-15.4 0-2.7 0.1-5.4c0.8-16.2 0.8-16.2-5.3-30.3q-2-1.8-4.1-3.6c-3.2-3.8-3.9-8.3-3.9-13.2q0.8-0.2 1.6-0.4 3.9-0.9 7.8-1.8 1.4-0.3 2.8-0.7c7-1.6 13.9-3.5 20.8-5.6 5.2-1.5 11.1-3 16.2-0.4z"/><path class="a" d="m326 275c1.5 8 2.4 15.8 2.7 23.9q0.2 3.4 0.4 6.7 0.3 5.2 0.5 10.4 0.2 5 0.5 10.1 0.1 1.5 0.2 3.1c0.3 7.2 1.7 13.8 3.7 20.8 4.1-1.3 7.6-2.8 11.4-4.9 15.7-7.8 34.3-10.2 51.2-5 16 5.5 27.6 15.9 35.2 30.9 2.7 5.5 4.7 11 6.2 17q0.3 0.9 0.5 1.8c3.4 15.1 0.2 31.8-7.3 45-10.8 15.9-26.4 24-45 27.8-19.3 2.5-34.6-1.8-51.3-11.4-3.3-1.4-4.6-1.4-7.9-0.2-2.2 1.2-2.2 1.2-4.3 2.8-13.6 9.3-26.8 8.5-42.8 8.6q-3.2 0-6.4 0c-25.5 0.5-25.5 0.5-36.9-7.8-2.5-1.9-2.5-1.9-5.5-1.6-6 1.9-11.1 5-16.4 8.5-12.7 8.2-26.5 9.8-41.3 7.3-13.3-3.1-27.5-10.6-35.1-22.4-7.2-13.2-7.7-27.6-8.6-42.3-0.4-12.5-0.4-12.5-4.7-24.1q-1.1-0.4-2.3-0.9c-3.8-1.5-5.4-3.8-7.7-7.1-0.8-2.9-0.8-2.9-1-5q1.7-1.4 3.4-2.7 0.9-0.7 1.9-1.5c8.5-5.6 17.2-8.3 27-10.6q1.9-0.5 3.8-1c10-2.4 10-2.4 14.9-2.2q0 0.8 0.1 1.7c1.8 33.3 1.8 33.3 4.2 66.6q0.2 3 0.4 6.1c0.9 9.4 2.5 19.2 7.3 27.6 7 4.3 16.7 4 24.6 2.5 9-2.6 14.7-7.9 19.2-16.1 7.1-14.2 3.9-31 2.4-46.2-2.6-26.1-2.6-26.1 3.8-34.2 8.3-7.7 20.9-11.6 32-12 1.6 1.6 1.2 3.5 1.3 5.7q0 1.5 0.1 3.1 0 1.7 0.1 3.4 0.1 3.6 0.2 7.1 0.1 1.9 0.1 3.8c0.8 25.7 0.8 25.7 2 51.3q0.2 3 0.3 5.9c0.5 11.2 0.5 11.2 5.9 20.7 6.3 3.2 13.8 2.6 20.6 1.3 2.5-1.1 2.5-1.1 3.6-3.4q0.4-1.4 0.8-2.9c0.3-0.9 0.3-0.9 0.6-1.9 3.1-11.5 1.3-24.2 0.7-36q-1.1-21.4-1.8-42.8-0.1-2-0.1-4.1-0.3-9.9-0.6-19.9-0.1-3.7-0.2-7.4-0.1-1.7-0.1-3.4c-0.2-15.6-0.2-15.6-6.5-29.5-2-1.7-4-3.2-6.2-4.6-3.1-2.4-3.8-4.3-4.4-8.1q-0.2-1.6-0.4-3.3c16.7-5.9 33.5-5.3 51-5zm13.7 87.3c-7.4 9.6-7.3 19.3-7.1 30.9q0 4 0 8c0.1 23 0.1 23 10.6 42.8 7.2 6.3 15.4 8.3 24.8 8 7.7-0.8 13.5-3 19-8.5 7.4-9.3 9.7-21.1 12-32.5 0.3-1.5 0.3-1.5 0.6-2.9 2.3-16.9-0.2-32.2-10.1-46.2-5.1-6.4-12.4-11.3-20.5-12.9-12.3-1-21.1 4.6-29.3 13.3z"/><path class="a" d="m472.5 12.8c11 9.6 20.2 21.3 22.5 36.2 1 14.6-2.9 26.8-12.2 38.2-13.6 14.5-33.3 21-52.8 21.8q-1.2 0.1-2.5 0.2c-24.8 0.8-48.7-7.6-71.6-16.1q-6.1-2.3-12.3-4.5-1-0.3-2.1-0.7-7.7-2.7-15.5-4.9-0.5 3.9-1 7.9c-0.1 1-0.1 1-0.3 2.1-0.6 5.4-0.8 10.7-0.8 16q0 1.2 0 2.4c0.1 9.7 0.5 19.3 0.9 29q0.1 3 0.3 6 0.2 6.3 0.5 12.6 0.3 8 0.7 15.9 0.2 6.2 0.5 12.5 0.1 2.9 0.2 5.8c0.5 10 1 19.9 1.9 29.8q0.1 1.2 0.2 2.5c0.4 4.7 1.3 8.4 3.9 12.5 4.4 3 8.8 3.6 14 4 5.2 0.4 9.4 1.3 14 4 0.5 4 0.4 5.5-2.1 8.7-5.8 4.6-11.5 4.6-18.6 4.5q-1.4 0-2.8-0.1-4.5 0-9 0c-14.4-0.2-28.8 0-43.2 0.8-16.2 0.8-16.2 0.8-22.3-2.9-2.3-3.5-2.5-4.9-2-9 3.9-4.2 10.1-4.4 15.5-5.4q1.2-0.2 2.4-0.4c1.1-0.2 1.1-0.2 2.2-0.4 2.6-1.1 3.5-2.4 4.9-4.8 3.7-11.2 2.4-24.5 2.4-36.1q0-1.8 0-3.6c0-27.5-1.8-54.8-3.7-82.2q-0.9-14-1.3-28.1c-0.2-7.5-0.8-14.8-5.4-21-3.4-3-7.3-4.4-11.5-5.9q-1.1-0.4-2.2-0.8c-26.2-8.8-55.6-13.9-83.3-12.3-1.7 0.1-1.7 0.1-3.4 0.2-9 0.8-17.4 3-26 5.6q-1.7 0.4-3.4 0.9c-9.7 3.1-17.2 7.8-24.4 15.1q-0.8 0.7-1.5 1.5c-11.6 12.2-16.1 27-15.8 43.6 0.7 17.1 8.8 31.5 20.2 44 12.6 11 33 11.9 48.7 11.3 11-0.8 22.5-4.1 30.4-12 5.9-7.3 7.8-14.9 7.6-24.1-0.8-6.3-2.6-12.6-7-17.2-3.7-2.9-5.8-3.4-10.4-2.9-6.2 4.4-8.6 13.2-11 20-8.7 0.4-15.3-0.4-22.9-4.6-3.1-3.5-3.9-6.8-4.1-11.4 1.3-7.9 5.6-13.2 11.7-18.2 8.5-6 17.1-6.8 27.3-5.8 10.4 2.2 18.5 8.3 24.9 16.8 7 10.9 9.1 22.7 6.4 35.5-3.8 12.5-11.4 22.1-22.7 28.7-20.6 10.9-41.8 12.7-64 5.9-18.5-6.3-35.5-19.4-44.6-36.9-7.4-17.1-8.6-34.3-2-52 8.9-21.7 24.1-39 45.6-48.6 59.8-23.8 128.5 3.9 184.7 25.1q1.1 0.4 2.2 0.8c1.1 0.4 1.1 0.4 2.2 0.8 60.3 25.7 60.3 25.7 122.8 23.5 13.1-6 22-14.3 27.4-27.9 3.1-10.9 1.5-21-3.9-30.7-7-11.8-18.4-17.8-31.3-21.3-13.5-2.6-27.7-1.1-39.4 6.5-7.7 6-12.3 12.4-13.6 22.1-0.3 5.7 1 10.1 4.3 14.7 3.1 2.8 4.5 3 8.7 3 5.4-0.8 8.2-4.1 11.7-8q1.8-1.9 3.6-3.9 0.8-0.8 1.6-1.7c2.4-2.4 3.6-2.4 7.2-2.7 5.2 0.1 8.2 2.5 12 6 1.9 3.6 2.3 7.2 2.2 11.3-1.7 4.4-5 7.6-9 10-12.3 5.1-25.1 3.9-37.2-0.9-8.1-3.7-14.5-9.4-17.9-17.8-2.3-8.3-2.1-18.1 1.7-26 8.6-13.9 22.5-20.7 38-24.6 19.1-3.2 38.7-0.5 53.9 12.1z"/><path class="a" d="m486.1 137.9c7.5 7.2 14.3 17.5 15 28.1-0.2 3.1-1.1 4.7-3.1 7-7.4 5.6-15.5 5.3-24.4 5.2q-3.2-0.1-6.4-0.1-7.8 0-15.7-0.1-6.7-0.1-13.3-0.1-3.1 0-6.2-0.1c-7.6 0-14.6 0.5-22 2.2-0.5 14.5-0.4 27.6 10 39 7.9 6.9 18 10.9 28.5 10.4 4.8-0.7 7.8-2.3 10.8-6.1 3.5-5.6 5.5-11.9 7.5-18.2 3.5-10.7 3.5-10.7 8.1-13 7.4-0.7 14.1 1.6 21.1 3.9 0.8 9.1-1.6 19.1-7.3 26.5-15.8 14.7-33.1 17.4-54.1 16.9-18.7-0.9-38.2-7.1-51.3-21.2-11-13.7-13.4-28.2-12.3-45.2 2.1-15.6 11.5-28.9 23.3-38.8 25.3-18.6 67.5-15.4 91.8 3.7zm-72.1 8.1c-4.2 5.1-5.5 10.5-6 17q0.5 2 1 4c8.9 1.1 17.8 1.2 26.8 1.2q3.7 0.1 7.3 0.1 2.4 0 4.7 0c1.1 0 1.1 0 2.2 0.1 4.9-0.1 10.4-0.8 14-4.4 0.9-8.7-3.4-16-8.3-23.1-4.3-4.8-10.5-6.6-16.8-7.2-10.3 0.7-18 4.7-24.9 12.3z"/><path class="a" d="m541.9 340.7c7.9 4.9 14 11.4 16.5 20.6 1.5 8.9 0.3 16.1-4.7 23.6-3 3.8-6.1 5.6-10.7 7.1-4.4 0.4-8.5 0.5-12.7-1-8.7-7.5-8.7-7.5-10.2-13.5 1.3-5.1 4.3-7.8 7.9-11.5 4.6-5.2 7-9 8-16-12.2-0.4-22.7 0.5-32.2 8.9-12.6 13.3-14.3 31.2-14.1 48.7q0 3.2 0 6.4c0 8.2 0.7 16 2.3 24q0.2 1.8 0.4 3.6c2.1 3.2 3.7 3.2 7.5 4q1.5 0.3 3.2 0.6c3.4 0.9 4.7 2.1 6.9 4.8q0.5 1.5 1 3c-7.6 6.5-17.7 6.2-27.2 6.2q-1.4 0-2.9 0-3.1 0-6.2 0-4.6 0-9.3 0c-11.3 0.1-22.2-0.4-33.4-2.2-0.2-6.6-0.2-6.6 2-10 2.7-1 2.7-1 5.9-1.8 5.1-1.5 5.1-1.5 8.8-5.2 2-4.5 2.4-8.1 2.4-13.1q0-1.8 0-3.7 0-1.9 0-3.8 0-2 0-4c1-23.6 1-23.6-6.1-45.4-1.7-1.4-3.6-2.6-5.4-3.9-2.2-1.5-2.9-2.5-3.6-5.1-0.1-2.7 0-5.3 0-8 0.8-0.2 0.8-0.2 1.6-0.5q3.9-1 7.7-2.1 1.4-0.4 2.9-0.8 8.3-2.4 16.6-5.1c7.1-2.4 13.6-4.3 21.2-4.5 2.5 5.9 2.5 5.9 5 12 6.1-3.6 11.9-7.3 17.6-11.5 9-5.7 23.7-5.5 33.3-0.8z"/><path class="a" d="m36 312q2.7-0.1 5.3-0.2 1.5 0 3-0.1c2.7 0.3 2.7 0.3 4.3 1.4 2 2.7 1.9 5 2.1 8.3q0.1 1.9 0.2 3.9 0.1 2 0.2 4 0.2 3.9 0.4 7.9c0.1 1.7 0.1 1.7 0.1 3.5 0.4 3.4 1 6.2 2.4 9.3 7 2.3 16 1.3 23.3 0.5 5.1-0.5 10.1-0.6 15.1-0.7 1.2 0 1.2 0 2.4 0 3.9 0 6.9 0 10.2 2.2-0.5 5.5-0.5 5.5-2.7 7.6-11.4 6.9-33 6.6-45.7 3.9q-0.8-0.3-1.6-0.5c-3.4 49.2-3.4 49.2 13.3 92.5 3.2 2.9 5.7 3.4 10 3.9 5.2-0.6 9.5-1.9 13.1-6 2.1-3.1 3.7-6.5 5.4-10q0.4-0.9 0.9-1.9 0.9-1.8 1.8-3.8c1.6-3.2 2.4-4.6 5.5-6.7 2.5-0.4 2.5-0.4 5 0 2.4 2.2 3 4 3.9 7.1 0.2 9-4.4 15.3-10.4 21.6-10.9 10.1-22.7 14.9-37.5 14.6-11.9-0.6-21-6-29.7-13.7q-1.2-1.3-2.3-2.6-0.7-0.8-1.4-1.6c-13.9-16.9-13.9-39.6-15.5-60.4-0.8-10-1.9-20-3.1-30q-1 0.1-1.9 0.2c-4.6 0.3-6.5 0.3-10.2-2.7q-0.9-1.2-1.9-2.5c3.2-7.6 9.7-10.1 16.7-13.6 4.5-2.3 7.9-4.6 11.3-8.4q0.8-0.9 1.6-1.8c4.7-7.6 5.4-16.5 6.4-25.2z"/></svg>